<svg width="61" height="63" viewBox="0 0 61 63" fill="none" xmlns="http://www.w3.org/2000/svg">
<rect width="61" height="63" fill="#C4C4C4"/>
<path d="M31 8L52.1095 17.0362L57.3231 37.3405L42.7149 53.6233H19.2851L4.67695 37.3405L9.89055 17.0362L31 8Z" fill="black"/>
<path d="M27.7852 29.4961H31.2305C32.332 29.4961 33.0938 29.3555 33.5156 29.0742C33.9375 28.793 34.1484 28.2656 34.1484 27.4922C34.1484 27.0469 34.6172 26.8242 35.5547 26.8242C36.4922 26.8242 36.9609 27.0469 36.9609 27.4922V34.5234C36.9609 34.9219 36.4922 35.1211 35.5547 35.1211C34.6172 35.1211 34.1484 34.9219 34.1484 34.5234C34.1484 33.7266 33.9258 33.1641 33.4805 32.8359C33.0352 32.5078 32.2734 32.3438 31.1953 32.3438H27.7852V40.2188C27.7852 41.0391 28.2305 41.4492 29.1211 41.4492H33.375C34.2891 41.4492 34.8867 41.2383 35.168 40.8164C35.4727 40.3711 35.6836 39.8789 35.8008 39.3398C35.9414 38.5664 36.4922 38.2383 37.4531 38.3555C38.4141 38.4492 38.8945 38.8242 38.8945 39.4805L38.6484 44.3672H23.3555V22.7812C23.3555 22.0312 23.2969 21.5508 23.1797 21.3398C23.0625 21.1055 22.8984 20.9531 22.6875 20.8828C22.2891 20.7422 21.9727 20.5898 21.7383 20.4258C21.5039 20.2383 21.3867 19.9453 21.3867 19.5469C21.3867 18.8203 21.7969 18.457 22.6172 18.457H38.0859L38.2969 23.0625C38.2969 23.8125 37.8047 24.1992 36.8203 24.2227C35.8359 24.2461 35.3203 23.8711 35.2734 23.0977C35.2031 22.7227 35.0156 22.3477 34.7109 21.9727C34.4297 21.5742 33.7969 21.375 32.8125 21.375H29.0508C28.207 21.375 27.7852 21.7969 27.7852 22.6406V29.4961Z" fill="#C20000"/>
</svg>
