<?xml version="1.0" standalone="no"?>
<!DOCTYPE svg PUBLIC "-//W3C//DTD SVG 20010904//EN"
 "http://www.w3.org/TR/2001/REC-SVG-20010904/DTD/svg10.dtd">
<svg version="1.0" xmlns="http://www.w3.org/2000/svg"
 width="566.000000pt" height="566.000000pt" viewBox="0 0 566.000000 566.000000"
 preserveAspectRatio="xMidYMid meet">

<g transform="translate(0.000000,566.000000) scale(0.100000,-0.100000)"
fill="#000000" stroke="none">
<path d="M2822 5360 c-66 -41 -72 -63 -72 -276 l0 -192 -57 -6 c-267 -31 -520
-124 -744 -274 -298 -200 -510 -488 -627 -852 -37 -115 -72 -293 -72 -369 l0
-31 -216 0 c-181 0 -222 -3 -251 -17 -74 -35 -97 -133 -46 -194 46 -54 70 -59
307 -59 246 0 214 14 236 -105 33 -181 158 -471 262 -610 82 -110 281 -307
382 -379 214 -154 491 -259 746 -284 l75 -7 5 -243 5 -244 37 -33 c47 -43 81
-52 131 -34 78 27 81 38 87 312 l5 241 35 7 c19 4 76 15 125 25 439 84 850
391 1077 804 74 134 168 412 168 497 0 54 -3 53 206 53 210 0 239 5 283 53 31
34 39 103 17 145 -32 62 -49 66 -275 72 l-205 5 -7 40 c-4 22 -12 83 -18 136
-33 272 -162 555 -363 794 -146 173 -356 329 -573 423 -98 42 -294 101 -390
115 l-80 13 -5 207 c-5 207 -5 207 -31 231 -14 13 -35 27 -47 30 -12 4 -22 12
-22 17 0 16 -54 10 -88 -11z m-72 -895 c0 -169 6 -195 56 -234 33 -26 113 -29
149 -5 45 30 54 67 57 229 l3 150 60 -2 c115 -4 312 -76 468 -169 279 -168
490 -447 586 -774 29 -100 50 -213 51 -272 l0 -28 -150 0 c-167 0 -188 -6
-235 -62 -23 -28 -27 -39 -23 -80 10 -98 68 -127 257 -128 l134 0 -6 -47 c-8
-70 -63 -235 -112 -339 -106 -222 -356 -478 -580 -596 -91 -47 -253 -103 -356
-123 -45 -8 -85 -15 -90 -15 -5 0 -9 58 -9 130 l0 130 -36 40 c-32 36 -41 40
-83 40 -58 0 -107 -29 -127 -75 -9 -23 -14 -73 -14 -155 l0 -121 -47 6 c-418
59 -748 261 -966 590 -70 107 -95 154 -136 260 -28 73 -71 232 -71 263 0 9 28
12 106 12 59 0 124 5 146 12 91 27 128 130 72 198 -45 53 -70 60 -209 60
l-125 0 0 46 c0 74 46 281 83 376 141 357 451 655 804 774 91 31 240 62 301
63 l42 1 0 -155z"/>
<path d="M2463 4345 c-123 -39 -291 -129 -383 -206 -51 -42 -60 -55 -60 -83 0
-38 25 -66 60 -66 13 0 57 26 99 58 92 71 203 132 293 161 66 22 108 56 108
88 0 17 -48 63 -64 62 -6 -1 -30 -7 -53 -14z"/>
<path d="M3017 4273 c-11 -11 -8 -58 5 -71 31 -31 71 15 49 57 -11 20 -41 28
-54 14z"/>
<path d="M3125 4159 c-24 -30 -25 -33 -9 -50 20 -22 45 -12 70 26 36 55 -17
76 -61 24z"/>
<path d="M2795 4051 c-111 -50 -137 -184 -50 -260 42 -37 71 -45 131 -38 83 9
146 97 130 181 -12 64 -94 137 -153 136 -10 0 -36 -9 -58 -19z m23 -94 c14
-16 5 -58 -15 -74 -23 -18 -43 -4 -43 31 0 48 34 73 58 43z"/>
<path d="M1837 3838 c-25 -19 -87 -155 -87 -192 0 -58 67 -89 102 -48 23 26
78 163 78 194 0 45 -56 73 -93 46z"/>
<path d="M3105 3787 c-31 -66 -33 -97 -6 -97 24 0 56 39 71 86 14 42 7 64 -19
64 -15 0 -28 -15 -46 -53z"/>
<path d="M2797 3677 c-7 -19 17 -510 26 -524 5 -7 16 -13 26 -13 10 0 23 6 29
13 15 19 35 506 21 523 -15 18 -95 19 -102 1z"/>
<path d="M2667 3073 c-4 -3 -7 -17 -7 -30 l0 -23 185 0 c157 0 187 2 191 15 4
8 1 22 -6 30 -10 12 -44 15 -185 15 -94 0 -175 -3 -178 -7z"/>
<path d="M2197 3013 c-30 -29 27 -102 64 -82 26 13 24 31 -7 63 -27 26 -45 32
-57 19z"/>
<path d="M3441 2994 c-25 -32 -26 -47 -6 -64 24 -20 70 18 70 56 0 40 -35 45
-64 8z"/>
<path d="M2477 2943 c-4 -3 -7 -15 -7 -25 0 -13 8 -18 30 -18 44 0 96 -24 112
-52 7 -12 15 -63 18 -113 l5 -90 214 -3 c165 -2 216 1 223 10 4 7 8 52 8 99 0
81 1 87 29 113 18 17 44 30 70 33 46 6 54 13 45 37 -5 14 -47 16 -373 16 -202
0 -371 -3 -374 -7z"/>
<path d="M2135 2880 c-29 -33 -13 -50 49 -50 60 0 74 14 50 49 -20 28 -74 28
-99 1z"/>
<path d="M3465 2880 c-29 -32 -13 -50 43 -50 60 0 79 16 56 48 -20 29 -74 30
-99 2z"/>
<path d="M2390 2815 c-6 -8 -10 -22 -8 -32 3 -15 16 -18 91 -21 94 -3 110 5
87 47 -9 18 -20 21 -84 21 -52 0 -77 -4 -86 -15z"/>
<path d="M3141 2816 c-7 -8 -11 -23 -9 -33 3 -16 15 -18 93 -18 l90 0 0 30 0
30 -81 3 c-62 2 -84 -1 -93 -12z"/>
<path d="M2380 2670 l0 -31 93 3 c91 3 92 3 92 28 0 25 -1 25 -92 28 l-93 3 0
-31z"/>
<path d="M3134 2685 c-15 -37 2 -45 96 -45 l91 0 -3 28 c-3 27 -3 27 -91 30
-71 2 -88 0 -93 -13z"/>
<path d="M2358 2569 c-21 -12 -25 -88 -6 -107 17 -17 979 -17 996 0 7 7 12 29
12 49 0 72 23 69 -508 69 -305 0 -483 -4 -494 -11z"/>
<path d="M1152 1078 c-18 -18 -17 -361 1 -377 9 -7 86 -12 213 -13 l199 -3 3
-157 3 -158 23 0 c43 0 47 16 44 206 l-3 179 -205 6 c-113 3 -206 6 -207 7 -1
1 -4 73 -5 160 l-3 157 -25 3 c-14 2 -31 -3 -38 -10z"/>
<path d="M1570 950 c0 -121 2 -142 16 -147 9 -3 24 -2 33 4 13 9 16 32 16 144
l0 134 -32 3 -33 3 0 -141z"/>
<path d="M2322 1078 c-9 -9 -12 -100 -12 -349 0 -363 0 -365 52 -357 l23 3 2
269 c1 147 4 270 6 273 3 2 30 -35 61 -82 59 -89 78 -105 105 -88 31 20 15 58
-84 201 -101 144 -121 162 -153 130z"/>
<path d="M2766 1083 c-4 -4 -6 -123 -5 -265 0 -142 -3 -259 -7 -260 -5 -2 -33
33 -64 77 -44 63 -61 80 -80 80 -22 0 -25 -5 -25 -33 0 -26 22 -66 95 -173 81
-119 99 -139 121 -139 15 0 29 7 33 16 3 9 6 163 6 344 0 181 -3 335 -6 344
-6 16 -54 22 -68 9z"/>
<path d="M2914 1076 c-3 -8 -4 -23 -2 -33 3 -17 20 -18 258 -18 l255 0 0 30 0
30 -253 3 c-214 2 -253 0 -258 -12z"/>
<path d="M3524 1077 c-2 -7 -3 -58 -2 -113 l3 -99 32 -3 32 -3 3 78 3 78 187
3 c178 2 188 4 199 23 25 47 15 49 -226 49 -178 0 -227 -3 -231 -13z"/>
<path d="M4075 1077 c-3 -6 -4 -167 -3 -357 l3 -345 30 0 30 0 3 103 3 102
108 0 108 0 98 -106 c82 -88 102 -105 124 -102 20 2 27 9 29 31 3 23 -13 46
-103 142 l-107 114 -126 3 -127 3 0 175 0 175 110 3 c104 2 113 1 165 -25 72
-37 95 -76 94 -161 0 -49 -5 -69 -22 -90 -37 -45 -47 -72 -35 -90 16 -26 49
-26 73 0 41 44 54 80 58 173 4 84 2 94 -25 145 -25 47 -38 60 -92 87 l-63 33
-164 0 c-123 0 -166 -3 -169 -13z"/>
<path d="M1755 1057 c-4 -13 -5 -133 -3 -268 3 -242 3 -244 29 -294 33 -62 53
-80 108 -100 125 -44 248 3 300 114 26 55 26 60 29 302 3 212 1 247 -12 258
-9 7 -22 11 -30 8 -12 -5 -15 -50 -18 -266 l-3 -259 -30 -43 c-42 -59 -86 -81
-156 -77 -67 5 -110 32 -142 91 -21 40 -22 56 -25 300 -3 246 -4 257 -22 257
-12 0 -22 -9 -25 -23z"/>
<path d="M3135 987 c-3 -7 -4 -147 -3 -312 l3 -300 23 -3 c51 -8 52 -2 52 312
0 214 -3 295 -12 304 -16 16 -57 15 -63 -1z"/>
<path d="M3532 808 c-17 -17 -17 -409 0 -426 9 -9 72 -12 224 -12 181 0 213 2
225 16 9 11 10 20 2 32 -9 15 -37 18 -199 22 l-189 5 -1 143 c-1 127 1 144 17
153 10 5 74 9 142 9 136 0 159 8 137 49 -10 20 -19 21 -178 21 -117 0 -172 -4
-180 -12z"/>
<path d="M1152 648 c-8 -8 -12 -52 -12 -134 0 -131 6 -149 52 -142 22 3 23 6
26 132 3 132 -3 156 -37 156 -9 0 -22 -5 -29 -12z"/>
</g>
</svg>
